<svg width="32" height="32" viewBox="0 0 32 32" fill="none" xmlns="http://www.w3.org/2000/svg">
<path d="M0 16C0 7.16344 7.16344 0 16 0V0C24.8366 0 32 7.16344 32 16V16C32 24.8366 24.8366 32 16 32V32C7.16344 32 0 24.8366 0 16V16Z" fill="#05A2C2"/>
<path d="M10.528 14.6734V24.0472L8 22.6104V13.2139L10.528 14.6734Z" fill="white"/>
<path d="M21.4824 14.6531V24.0485L24.0104 22.589V13.1924L21.4824 14.6531Z" fill="white"/>
<path d="M18.1113 10.1634V25.9934L20.6393 24.5339V8.58789L18.1113 10.1634Z" fill="white"/>
<path d="M13.899 10.0625V25.9934L11.3711 24.5339V8.60303L13.899 10.0625Z" fill="white"/>
<path d="M17.2692 4.8125V17.6465V19.8364V26.4805L16.0052 27.2096L14.7412 26.4805V18.3769V16.187V6.28588L17.2692 4.8125Z" fill="white"/>
</svg>
